# xmcd
#
# Track frame offsets:
# 150
# 12346
# 23400
# 35268
# 48704
# 62422
# 75211
# 88236
# 99166
# 112261
# 123640
# 137302
# 149302
# 161345
# 174829
# 187833
# 199292
# 211437
# 224438
# 234541
#
# Disc length: 3284 seconds
#
# Revision: 0
# Processed by: cddbd v1.5.2PL0 Copyright (c) Steve Scherf et al.
# Submitted via: Audion 3.0.2 (http://www.panic.com/audion/)
#
DISCID=070cd214
DTITLE=Robert Johnson - Waiking Blues
DYEAR=2001
DGENRE=Blues
TTITLE0=cross road blues
TTITLE1=love in vain
TTITLE2=hellbound on my trail
TTITLE3=i believe i'll dust my broom
TTITLE4=sweet home chicago
TTITLE5=come on in my kitchen
TTITLE6=rambling on my mind
TTITLE7=from four till late
TTITLE8=32-20 bblues
TTITLE9=waiking blues
TTITLE10=terraplane blues
TTITLE11=when you got a good friend
TTITLE12=phonograph blues
TTITLE13=they're red hot
TTITLE14=kindhearted woman blues
TTITLE15=dead shrimp blues
TTITLE16=last fair deal gone down
TTITLE17=preaching blues (up jumped the devil)
TTITLE18=little queen of spades
TTITLE19=me and the devil blues
EXTD=
EXTT0=
EXTT1=
EXTT2=
EXTT3=
EXTT4=
EXTT5=
EXTT6=
EXTT7=
EXTT8=
EXTT9=
EXTT10=
EXTT11=
EXTT12=
EXTT13=
EXTT14=
EXTT15=
EXTT16=
EXTT17=
EXTT18=
EXTT19=
PLAYORDER=
